<svg width="135" height="36" viewBox="0 0 135 36" fill="none" xmlns="http://www.w3.org/2000/svg">
<rect x="15.2" width="11.2" height="14.4" rx="2" fill="#D7C39C"/>
<rect width="12" height="14.4" rx="2" fill="#678983"/>
<rect y="17.6" width="12" height="14.4" rx="2" fill="#D7C39C"/>
<rect x="15.2" y="17.6" width="11.2" height="14.4" rx="2" fill="#678983"/>
<path d="M41.222 15.248C41.11 15.456 40.438 16.808 39.206 19.304C38.39 20.968 37.566 22.224 36.734 23.072C35.918 23.936 35.294 24.368 34.862 24.368C34.67 24.368 34.574 24.28 34.574 24.104L34.646 23.816C34.822 23.336 35.366 22.208 36.278 20.432C37.206 18.656 38.07 17.08 38.87 15.704C39.622 14.392 40.358 13.128 41.078 11.912C41.798 10.68 42.334 9.776 42.686 9.2L43.214 8.336C43.246 8.288 43.286 8.224 43.334 8.144C43.382 8.064 43.486 7.92 43.646 7.712C43.822 7.504 43.998 7.328 44.174 7.184C44.35 7.024 44.558 6.88 44.798 6.752C45.038 6.624 45.27 6.56 45.494 6.56C45.702 6.56 45.806 6.616 45.806 6.728C45.806 6.872 45.71 7.08 45.518 7.352C44.318 9.4 43.038 11.728 41.678 14.336C41.662 14.368 41.654 14.4 41.654 14.432C41.654 14.48 41.686 14.504 41.75 14.504C42.758 14.504 43.686 14.312 44.534 13.928C45.398 13.544 46.094 13.048 46.622 12.44C47.166 11.816 47.582 11.152 47.87 10.448C48.174 9.744 48.326 9.048 48.326 8.36C48.326 7.384 47.958 6.648 47.222 6.152C46.486 5.656 45.622 5.408 44.63 5.408C43.878 5.408 43.142 5.52 42.422 5.744C41.718 5.968 41.094 6.352 40.55 6.896C40.022 7.44 39.758 8.088 39.758 8.84C39.758 9.288 39.878 9.72 40.118 10.136C40.198 10.296 40.238 10.408 40.238 10.472C40.238 10.568 40.174 10.616 40.046 10.616C40.014 10.616 39.95 10.6 39.854 10.568C39.806 10.552 39.742 10.52 39.662 10.472C39.582 10.424 39.438 10.328 39.23 10.184C39.022 10.04 38.838 9.888 38.678 9.728C38.518 9.568 38.374 9.36 38.246 9.104C38.118 8.832 38.054 8.56 38.054 8.288C38.054 7.296 38.662 6.464 39.878 5.792C41.11 5.12 42.502 4.784 44.054 4.784C44.806 4.784 45.518 4.848 46.19 4.976C46.878 5.104 47.542 5.312 48.182 5.6C48.838 5.872 49.358 6.272 49.742 6.8C50.126 7.328 50.318 7.952 50.318 8.672C50.318 9.744 50.038 10.712 49.478 11.576C48.934 12.424 48.214 13.104 47.318 13.616C46.438 14.112 45.494 14.496 44.486 14.768C43.478 15.024 42.462 15.152 41.438 15.152C41.422 15.136 41.398 15.128 41.366 15.128C41.302 15.128 41.254 15.168 41.222 15.248ZM54.7949 14.552C54.9389 14.584 55.0109 14.632 55.0109 14.696C55.0109 14.792 54.9469 14.904 54.8189 15.032C54.6429 15.208 54.3789 15.44 54.0269 15.728C53.6909 16.016 53.4909 16.192 53.4269 16.256L53.0909 16.712C52.7549 17.656 52.2349 18.64 51.5309 19.664C50.8429 20.672 49.9949 21.56 48.9869 22.328C47.9949 23.096 47.0429 23.48 46.1309 23.48C44.9949 23.48 44.4269 22.784 44.4269 21.392C44.4269 20.16 44.8269 18.832 45.6269 17.408C46.4269 15.968 47.4589 14.744 48.7229 13.736C50.0029 12.712 51.2589 12.2 52.4909 12.2C53.3869 12.2 53.8349 12.552 53.8349 13.256C53.8349 13.64 53.6429 14.16 53.2589 14.816C53.2429 14.832 53.2349 14.856 53.2349 14.888C53.2349 14.92 53.2509 14.936 53.2829 14.936C53.8749 14.696 54.3789 14.568 54.7949 14.552ZM52.5149 15.128C52.6429 14.568 52.7069 14.136 52.7069 13.832C52.7069 13.16 52.4829 12.824 52.0349 12.824C51.4109 12.824 50.6349 13.4 49.7069 14.552C48.7789 15.704 47.9789 17 47.3069 18.44C46.6509 19.88 46.3229 21.016 46.3229 21.848C46.3229 22.456 46.5389 22.76 46.9709 22.76C47.6429 22.76 48.4429 22.088 49.3709 20.744C50.3149 19.4 50.8829 18.048 51.0749 16.688C51.0589 16.656 51.0509 16.608 51.0509 16.544C51.0509 16.08 51.4669 15.664 52.2989 15.296C52.4269 15.248 52.4989 15.192 52.5149 15.128ZM58.7947 20.264C58.5067 21.048 58.0507 21.712 57.4267 22.256C56.8027 22.784 56.2187 23.144 55.6747 23.336C55.1467 23.528 54.6667 23.624 54.2347 23.624C53.0667 23.624 52.4827 23.168 52.4827 22.256C52.4827 21.328 52.9947 20.488 54.0187 19.736C54.4987 19.384 55.0187 19.152 55.5787 19.04C55.6587 19.04 55.6987 19.072 55.6987 19.136C55.6987 19.168 55.6827 19.2 55.6507 19.232C55.2507 19.536 54.8667 20.008 54.4987 20.648C54.1467 21.288 53.9707 21.848 53.9707 22.328C53.9707 22.808 54.1707 23.048 54.5707 23.048C54.8907 23.048 55.2027 22.92 55.5067 22.664C55.8267 22.392 56.0667 22.12 56.2267 21.848L56.4667 21.464C56.7867 20.952 57.0507 20.136 57.2587 19.016C57.4827 17.896 57.6267 16.904 57.6907 16.04L57.7627 14.744C57.7627 14.616 57.7387 14.552 57.6907 14.552L57.5947 14.6L55.2187 17.384C55.0427 17.592 54.9227 17.696 54.8587 17.696C54.7787 17.696 54.7387 17.64 54.7387 17.528C54.7387 17.32 54.7947 17.16 54.9067 17.048L55.1227 16.784C56.9467 14.736 57.9867 13.496 58.2427 13.064C58.4827 12.696 58.8347 12.376 59.2987 12.104C59.7467 11.848 60.2747 11.72 60.8827 11.72C61.0427 11.72 61.1227 11.784 61.1227 11.912C61.1227 11.992 61.0587 12.064 60.9307 12.128C60.8827 12.144 60.8187 12.184 60.7387 12.248C60.6747 12.296 60.5467 12.424 60.3547 12.632C60.1787 12.84 60.0187 13.08 59.8747 13.352C59.7307 13.624 59.6027 14.008 59.4907 14.504C59.3787 14.984 59.3227 15.52 59.3227 16.112C59.3227 17.952 59.1467 19.336 58.7947 20.264ZM64.3492 19.376C65.0212 18.704 65.9092 17.736 67.0132 16.472C67.0612 16.424 67.1012 16.4 67.1332 16.4C67.1652 16.4 67.1812 16.432 67.1812 16.496C67.1812 16.8 67.0612 17.096 66.8212 17.384C65.6372 18.696 64.5892 19.792 63.6772 20.672C61.7572 22.528 60.4852 23.456 59.8612 23.456C59.6372 23.456 59.5252 23.312 59.5252 23.024C59.5252 22.688 59.6532 22.184 59.9092 21.512C60.1652 20.84 60.4212 20.248 60.6772 19.736L61.0612 18.992C61.4292 18.336 62.0372 17.216 62.8852 15.632C63.7332 14.048 64.5492 12.552 65.3332 11.144C66.1332 9.736 66.8852 8.464 67.5892 7.328H65.6932C65.5332 7.328 65.4532 7.288 65.4532 7.208C65.4532 7.128 65.5172 7.048 65.6452 6.968C65.7732 6.888 65.9092 6.848 66.0532 6.848C66.4052 6.848 67.0212 6.84 67.9012 6.824C68.6852 5.592 69.3572 4.616 69.9172 3.896C70.4132 3.272 70.7572 2.96 70.9492 2.96C71.0612 2.96 71.1172 3.032 71.1172 3.176C71.1172 3.512 70.8132 4.232 70.2052 5.336L69.3892 6.824H71.8612C72.0052 6.824 72.0772 6.864 72.0772 6.944C72.0772 7.2 71.8452 7.328 71.3812 7.328H69.1252C65.4292 14.336 63.4852 18.008 63.2932 18.344C62.6212 19.576 62.2852 20.376 62.2852 20.744C62.2852 20.856 62.3252 20.912 62.4052 20.912C62.6292 20.912 63.2772 20.4 64.3492 19.376ZM71.8235 14.864C72.0155 14.464 72.1115 14.112 72.1115 13.808C72.1115 13.552 72.0315 13.424 71.8715 13.424C71.7755 13.424 71.6635 13.456 71.5355 13.52C71.4235 13.568 71.3355 13.624 71.2715 13.688L71.1515 13.784C70.6555 14.216 70.0315 15.008 69.2795 16.16C68.5435 17.296 68.1755 18.024 68.1755 18.344C68.1755 18.408 68.1915 18.44 68.2235 18.44C68.3195 18.44 68.5275 18.36 68.8475 18.2C69.1835 18.04 69.6555 17.664 70.2635 17.072C70.8875 16.48 71.4075 15.744 71.8235 14.864ZM70.7435 20.36C71.5915 19.576 72.8075 18.28 74.3915 16.472C74.4395 16.424 74.4795 16.4 74.5115 16.4C74.5435 16.4 74.5595 16.432 74.5595 16.496C74.5595 16.8 74.4395 17.096 74.1995 17.384C73.0155 18.696 71.9675 19.792 71.0555 20.672C70.3835 21.344 69.5835 21.992 68.6555 22.616C67.7275 23.224 66.9595 23.528 66.3515 23.528C65.6155 23.528 65.2475 23.016 65.2475 21.992C65.2475 20.296 65.8715 18.52 67.1195 16.664C68.3835 14.808 69.8395 13.552 71.4875 12.896C72.1755 12.608 72.7995 12.464 73.3595 12.464C73.9835 12.464 74.2955 12.712 74.2955 13.208C74.2955 14.136 73.6395 15.2 72.3275 16.4C71.0155 17.6 69.5435 18.512 67.9115 19.136C67.8475 19.152 67.7915 19.208 67.7435 19.304C67.5035 19.96 67.3835 20.544 67.3835 21.056C67.3835 21.632 67.5995 21.92 68.0315 21.92C68.7195 21.92 69.6235 21.4 70.7435 20.36ZM78.6181 18.032C78.4901 18.032 78.4261 17.984 78.4261 17.888C78.4261 17.84 78.4501 17.776 78.4981 17.696C79.4421 16.224 79.9141 15.216 79.9141 14.672C79.9141 14.528 79.8581 14.456 79.7461 14.456C79.2661 14.456 78.1381 15.544 76.3621 17.72C75.8341 18.392 75.3381 19.088 74.8741 19.808C74.4261 20.528 74.1141 21.08 73.9381 21.464L73.6501 22.016C73.4581 22.4 73.1621 22.752 72.7621 23.072C72.3621 23.408 71.9461 23.576 71.5141 23.576C71.2901 23.576 71.1781 23.52 71.1781 23.408C71.1781 23.312 71.2501 23.112 71.3941 22.808C71.5221 22.504 71.6821 22.168 71.8741 21.8C72.0661 21.432 72.2581 21.072 72.4501 20.72C72.6421 20.368 72.8021 20.072 72.9301 19.832L73.1461 19.472L75.6661 15.08C76.6421 13.24 77.6661 12.32 78.7381 12.32C78.8821 12.32 78.9541 12.376 78.9541 12.488C78.9541 12.632 78.6021 13.232 77.8981 14.288C77.2101 15.328 76.8101 15.992 76.6981 16.28C76.6661 16.376 76.6501 16.432 76.6501 16.448C76.6501 16.48 76.6661 16.496 76.6981 16.496C76.7301 16.496 76.7861 16.456 76.8661 16.376C78.0661 15.016 79.3381 13.808 80.6821 12.752C80.7621 12.672 80.9381 12.56 81.2101 12.416C81.4821 12.256 81.7221 12.176 81.9301 12.176C82.2341 12.176 82.3861 12.44 82.3861 12.968C82.3861 13.544 82.1941 14.232 81.8101 15.032C81.4261 15.832 80.9061 16.536 80.2501 17.144L80.1541 17.24C80.0901 17.288 80.0181 17.344 79.9381 17.408C79.8741 17.456 79.7861 17.52 79.6741 17.6C79.5621 17.68 79.4501 17.752 79.3381 17.816C79.2261 17.864 79.1061 17.912 78.9781 17.96C78.8501 18.008 78.7301 18.032 78.6181 18.032ZM90.7304 15.248C90.6184 15.456 89.9464 16.808 88.7144 19.304C87.8984 20.968 87.0744 22.224 86.2424 23.072C85.4264 23.936 84.8024 24.368 84.3704 24.368C84.1784 24.368 84.0824 24.28 84.0824 24.104L84.1544 23.816C84.3304 23.336 84.8744 22.208 85.7864 20.432C86.7144 18.656 87.5784 17.08 88.3784 15.704C89.1304 14.392 89.8664 13.128 90.5864 11.912C91.3064 10.68 91.8424 9.776 92.1944 9.2L92.7224 8.336C92.7544 8.288 92.7944 8.224 92.8424 8.144C92.8904 8.064 92.9944 7.92 93.1544 7.712C93.3304 7.504 93.5064 7.328 93.6824 7.184C93.8584 7.024 94.0664 6.88 94.3064 6.752C94.5464 6.624 94.7784 6.56 95.0024 6.56C95.2104 6.56 95.3144 6.616 95.3144 6.728C95.3144 6.872 95.2184 7.08 95.0264 7.352C93.8264 9.4 92.5464 11.728 91.1864 14.336C91.1704 14.368 91.1624 14.4 91.1624 14.432C91.1624 14.48 91.1944 14.504 91.2584 14.504C92.2664 14.504 93.1944 14.312 94.0424 13.928C94.9064 13.544 95.6024 13.048 96.1304 12.44C96.6744 11.816 97.0904 11.152 97.3784 10.448C97.6824 9.744 97.8344 9.048 97.8344 8.36C97.8344 7.384 97.4664 6.648 96.7304 6.152C95.9944 5.656 95.1304 5.408 94.1384 5.408C93.3864 5.408 92.6504 5.52 91.9304 5.744C91.2264 5.968 90.6024 6.352 90.0584 6.896C89.5304 7.44 89.2664 8.088 89.2664 8.84C89.2664 9.288 89.3864 9.72 89.6264 10.136C89.7064 10.296 89.7464 10.408 89.7464 10.472C89.7464 10.568 89.6824 10.616 89.5544 10.616C89.5224 10.616 89.4584 10.6 89.3624 10.568C89.3144 10.552 89.2504 10.52 89.1704 10.472C89.0904 10.424 88.9464 10.328 88.7384 10.184C88.5304 10.04 88.3464 9.888 88.1864 9.728C88.0264 9.568 87.8824 9.36 87.7544 9.104C87.6264 8.832 87.5624 8.56 87.5624 8.288C87.5624 7.296 88.1704 6.464 89.3864 5.792C90.6184 5.12 92.0104 4.784 93.5624 4.784C94.3144 4.784 95.0264 4.848 95.6984 4.976C96.3864 5.104 97.0504 5.312 97.6904 5.6C98.3464 5.872 98.8664 6.272 99.2504 6.8C99.6344 7.328 99.8264 7.952 99.8264 8.672C99.8264 9.744 99.5464 10.712 98.9864 11.576C98.4424 12.424 97.7224 13.104 96.8264 13.616C95.9464 14.112 95.0024 14.496 93.9944 14.768C92.9864 15.024 91.9704 15.152 90.9464 15.152C90.9304 15.136 90.9064 15.128 90.8744 15.128C90.8104 15.128 90.7624 15.168 90.7304 15.248ZM100.415 14.864C100.607 14.464 100.703 14.112 100.703 13.808C100.703 13.552 100.623 13.424 100.463 13.424C100.367 13.424 100.255 13.456 100.127 13.52C100.015 13.568 99.9273 13.624 99.8633 13.688L99.7433 13.784C99.2473 14.216 98.6233 15.008 97.8713 16.16C97.1353 17.296 96.7673 18.024 96.7673 18.344C96.7673 18.408 96.7833 18.44 96.8153 18.44C96.9113 18.44 97.1193 18.36 97.4393 18.2C97.7753 18.04 98.2473 17.664 98.8553 17.072C99.4793 16.48 99.9993 15.744 100.415 14.864ZM99.3353 20.36C100.183 19.576 101.399 18.28 102.983 16.472C103.031 16.424 103.071 16.4 103.103 16.4C103.135 16.4 103.151 16.432 103.151 16.496C103.151 16.8 103.031 17.096 102.791 17.384C101.607 18.696 100.559 19.792 99.6473 20.672C98.9753 21.344 98.1753 21.992 97.2473 22.616C96.3193 23.224 95.5513 23.528 94.9433 23.528C94.2073 23.528 93.8393 23.016 93.8393 21.992C93.8393 20.296 94.4633 18.52 95.7113 16.664C96.9753 14.808 98.4313 13.552 100.079 12.896C100.767 12.608 101.391 12.464 101.951 12.464C102.575 12.464 102.887 12.712 102.887 13.208C102.887 14.136 102.231 15.2 100.919 16.4C99.6073 17.6 98.1353 18.512 96.5033 19.136C96.4393 19.152 96.3833 19.208 96.3353 19.304C96.0953 19.96 95.9753 20.544 95.9753 21.056C95.9753 21.632 96.1913 21.92 96.6233 21.92C97.3113 21.92 98.2153 21.4 99.3353 20.36ZM108.17 11.312C109.306 10.512 110.322 9.608 111.218 8.6C112.13 7.576 112.818 6.64 113.282 5.792C113.762 4.928 114.122 4.184 114.362 3.56C114.602 2.936 114.722 2.488 114.722 2.216C114.722 2.056 114.666 1.976 114.554 1.976C114.33 1.976 114.058 2.136 113.738 2.456C113.13 3.064 112.442 3.944 111.674 5.096C110.906 6.248 110.282 7.24 109.802 8.072C109.338 8.888 108.73 9.984 107.978 11.36C108.042 11.36 108.106 11.344 108.17 11.312ZM105.602 19.376C106.274 18.704 107.162 17.736 108.266 16.472C108.314 16.424 108.354 16.4 108.386 16.4C108.418 16.4 108.434 16.432 108.434 16.496C108.434 16.8 108.314 17.096 108.074 17.384C106.89 18.696 105.842 19.792 104.93 20.672C102.93 22.56 101.658 23.504 101.114 23.504C100.874 23.504 100.754 23.336 100.754 23C100.754 22.824 100.778 22.632 100.826 22.424C100.858 22.216 100.922 21.992 101.018 21.752C101.114 21.496 101.194 21.288 101.258 21.128C101.338 20.952 101.442 20.712 101.57 20.408C101.714 20.088 101.81 19.872 101.858 19.76C102.306 18.752 103.682 16.096 105.986 11.792C109.138 6.048 112.034 2.52 114.674 1.208C115.058 1.016 115.442 0.92 115.826 0.92C116.274 0.92 116.498 1.128 116.498 1.544C116.498 2.504 116.17 3.56 115.514 4.712C114.858 5.848 114.058 6.896 113.114 7.856C112.17 8.816 111.242 9.656 110.33 10.376C109.434 11.096 108.658 11.64 108.002 12.008C107.906 12.04 107.818 12.112 107.738 12.224C107.034 13.36 106.346 14.584 105.674 15.896C105.002 17.192 104.498 18.216 104.162 18.968L103.682 20.072C103.602 20.312 103.562 20.472 103.562 20.552C103.562 20.696 103.618 20.768 103.73 20.768C104.05 20.768 104.674 20.304 105.602 19.376ZM114.205 11.312C115.341 10.512 116.357 9.608 117.253 8.6C118.165 7.576 118.853 6.64 119.317 5.792C119.797 4.928 120.157 4.184 120.397 3.56C120.637 2.936 120.757 2.488 120.757 2.216C120.757 2.056 120.701 1.976 120.589 1.976C120.365 1.976 120.093 2.136 119.773 2.456C119.165 3.064 118.477 3.944 117.709 5.096C116.941 6.248 116.317 7.24 115.837 8.072C115.373 8.888 114.765 9.984 114.013 11.36C114.077 11.36 114.141 11.344 114.205 11.312ZM111.637 19.376C112.309 18.704 113.197 17.736 114.301 16.472C114.349 16.424 114.389 16.4 114.421 16.4C114.453 16.4 114.469 16.432 114.469 16.496C114.469 16.8 114.349 17.096 114.109 17.384C112.925 18.696 111.877 19.792 110.965 20.672C108.965 22.56 107.693 23.504 107.149 23.504C106.909 23.504 106.789 23.336 106.789 23C106.789 22.824 106.813 22.632 106.861 22.424C106.893 22.216 106.957 21.992 107.053 21.752C107.149 21.496 107.229 21.288 107.293 21.128C107.373 20.952 107.477 20.712 107.605 20.408C107.749 20.088 107.845 19.872 107.893 19.76C108.341 18.752 109.717 16.096 112.021 11.792C115.173 6.048 118.069 2.52 120.709 1.208C121.093 1.016 121.477 0.92 121.861 0.92C122.309 0.92 122.533 1.128 122.533 1.544C122.533 2.504 122.205 3.56 121.549 4.712C120.893 5.848 120.093 6.896 119.149 7.856C118.205 8.816 117.277 9.656 116.365 10.376C115.469 11.096 114.693 11.64 114.037 12.008C113.941 12.04 113.853 12.112 113.773 12.224C113.069 13.36 112.381 14.584 111.709 15.896C111.037 17.192 110.533 18.216 110.197 18.968L109.717 20.072C109.637 20.312 109.597 20.472 109.597 20.552C109.597 20.696 109.653 20.768 109.765 20.768C110.085 20.768 110.709 20.304 111.637 19.376ZM119.105 14.864C119.297 14.464 119.393 14.112 119.393 13.808C119.393 13.552 119.313 13.424 119.153 13.424C119.057 13.424 118.945 13.456 118.817 13.52C118.705 13.568 118.617 13.624 118.553 13.688L118.433 13.784C117.937 14.216 117.313 15.008 116.561 16.16C115.825 17.296 115.457 18.024 115.457 18.344C115.457 18.408 115.473 18.44 115.505 18.44C115.601 18.44 115.809 18.36 116.129 18.2C116.465 18.04 116.937 17.664 117.545 17.072C118.169 16.48 118.689 15.744 119.105 14.864ZM118.025 20.36C118.873 19.576 120.089 18.28 121.673 16.472C121.721 16.424 121.761 16.4 121.793 16.4C121.825 16.4 121.841 16.432 121.841 16.496C121.841 16.8 121.721 17.096 121.481 17.384C120.297 18.696 119.249 19.792 118.337 20.672C117.665 21.344 116.865 21.992 115.937 22.616C115.009 23.224 114.241 23.528 113.633 23.528C112.897 23.528 112.529 23.016 112.529 21.992C112.529 20.296 113.153 18.52 114.401 16.664C115.665 14.808 117.121 13.552 118.769 12.896C119.457 12.608 120.081 12.464 120.641 12.464C121.265 12.464 121.577 12.712 121.577 13.208C121.577 14.136 120.921 15.2 119.609 16.4C118.297 17.6 116.825 18.512 115.193 19.136C115.129 19.152 115.073 19.208 115.025 19.304C114.785 19.96 114.665 20.544 114.665 21.056C114.665 21.632 114.881 21.92 115.313 21.92C116.001 21.92 116.905 21.4 118.025 20.36ZM124.052 19.376C124.724 18.704 125.612 17.736 126.716 16.472C126.764 16.424 126.804 16.4 126.836 16.4C126.868 16.4 126.884 16.432 126.884 16.496C126.884 16.8 126.764 17.096 126.524 17.384C125.34 18.696 124.292 19.792 123.38 20.672C121.46 22.528 120.188 23.456 119.564 23.456C119.34 23.456 119.228 23.312 119.228 23.024C119.228 22.688 119.356 22.184 119.612 21.512C119.868 20.84 120.124 20.248 120.38 19.736L120.764 18.992C121.132 18.336 121.74 17.216 122.588 15.632C123.436 14.048 124.252 12.552 125.036 11.144C125.836 9.736 126.588 8.464 127.292 7.328H125.396C125.236 7.328 125.156 7.288 125.156 7.208C125.156 7.128 125.22 7.048 125.348 6.968C125.476 6.888 125.612 6.848 125.756 6.848C126.108 6.848 126.724 6.84 127.604 6.824C128.388 5.592 129.06 4.616 129.62 3.896C130.116 3.272 130.46 2.96 130.652 2.96C130.764 2.96 130.82 3.032 130.82 3.176C130.82 3.512 130.516 4.232 129.908 5.336L129.092 6.824H131.564C131.708 6.824 131.78 6.864 131.78 6.944C131.78 7.2 131.548 7.328 131.084 7.328H128.828C125.132 14.336 123.188 18.008 122.996 18.344C122.324 19.576 121.988 20.376 121.988 20.744C121.988 20.856 122.028 20.912 122.108 20.912C122.332 20.912 122.98 20.4 124.052 19.376ZM131.526 14.864C131.718 14.464 131.814 14.112 131.814 13.808C131.814 13.552 131.734 13.424 131.574 13.424C131.478 13.424 131.366 13.456 131.238 13.52C131.126 13.568 131.038 13.624 130.974 13.688L130.854 13.784C130.358 14.216 129.734 15.008 128.982 16.16C128.246 17.296 127.878 18.024 127.878 18.344C127.878 18.408 127.894 18.44 127.926 18.44C128.022 18.44 128.23 18.36 128.55 18.2C128.886 18.04 129.358 17.664 129.966 17.072C130.59 16.48 131.11 15.744 131.526 14.864ZM130.446 20.36C131.294 19.576 132.51 18.28 134.094 16.472C134.142 16.424 134.182 16.4 134.214 16.4C134.246 16.4 134.262 16.432 134.262 16.496C134.262 16.8 134.142 17.096 133.902 17.384C132.718 18.696 131.67 19.792 130.758 20.672C130.086 21.344 129.286 21.992 128.358 22.616C127.43 23.224 126.662 23.528 126.054 23.528C125.318 23.528 124.95 23.016 124.95 21.992C124.95 20.296 125.574 18.52 126.822 16.664C128.086 14.808 129.542 13.552 131.19 12.896C131.878 12.608 132.502 12.464 133.062 12.464C133.686 12.464 133.998 12.712 133.998 13.208C133.998 14.136 133.342 15.2 132.03 16.4C130.718 17.6 129.246 18.512 127.614 19.136C127.55 19.152 127.494 19.208 127.446 19.304C127.206 19.96 127.086 20.544 127.086 21.056C127.086 21.632 127.302 21.92 127.734 21.92C128.422 21.92 129.326 21.4 130.446 20.36Z" fill="#678983"/>
</svg>
